<?xml version="1.0" encoding="UTF-8" standalone="no"?>
<!-- Created with Inkscape (http://www.inkscape.org/) -->

<svg
   width="345.54337mm"
   height="56.870476mm"
   viewBox="0 0 345.54336 56.870477"
   version="1.1"
   id="svg1"
   xml:space="preserve"
   xmlns:xlink="http://www.w3.org/1999/xlink"
   xmlns="http://www.w3.org/2000/svg"
   xmlns:svg="http://www.w3.org/2000/svg"><defs
     id="defs1" /><g
     id="layer1"
     transform="translate(-49.739214,-96.045849)"><path
       id="rect52"
       style="opacity:1;fill:#0049fe;fill-opacity:1;stroke-width:3.20282;stroke-linecap:round;paint-order:stroke markers fill"
       d="m 147.30336,96.067616 c -1.68671,0.02685 -3.26245,1.341768 -3.49422,3.024614 -0.14121,1.23168 -0.0745,2.48677 -0.0476,3.72336 0.0745,1.79215 1.66487,3.32674 3.45259,3.37246 1.36543,-0.0286 2.77557,0.1649 4.11114,-0.16448 1.55157,-0.46244 2.60961,-2.03027 2.54813,-3.63501 -0.0924,-1.56975 0.32551,-3.330399 -0.63328,-4.705673 -0.78152,-1.249522 -2.31664,-1.738246 -3.73057,-1.618845 -0.73532,0.0027 -1.47127,-0.0051 -2.20624,0.0036 z" /><use
       x="0"
       y="0"
       xlink:href="#rect52"
       transform="translate(0,11.671859)"
       id="use107" /><use
       x="0"
       y="0"
       xlink:href="#rect52"
       transform="translate(0,23.343718)"
       id="use108" /><use
       x="0"
       y="0"
       xlink:href="#rect52"
       transform="translate(0,35.015575)"
       id="use109" /><use
       x="0"
       y="0"
       xlink:href="#rect52"
       transform="translate(-35.022682,35.015575)"
       id="use109-5" /><use
       x="0"
       y="0"
       xlink:href="#rect52"
       transform="translate(0,46.687436)"
       id="use110" /><path
       id="rect52-8"
       style="fill:#0049fe;fill-opacity:1;stroke-width:3.20282;stroke-linecap:round;paint-order:stroke markers fill"
       d="m 177.44603,96.067621 c -1.68671,0.0269 -3.26245,1.34177 -3.49422,3.02461 -0.14121,1.231679 -0.0745,2.486769 -0.0476,3.723359 0.0745,1.79215 1.66487,3.32674 3.45259,3.37246 1.36543,-0.0286 2.77557,0.1649 4.11114,-0.16448 1.55157,-0.46244 2.60961,-2.03027 2.54813,-3.63501 -0.0924,-1.56975 0.32551,-3.330399 -0.63328,-4.705669 -0.78152,-1.24952 -2.31664,-1.73825 -3.73057,-1.61885 -0.73532,0.003 -1.47127,-0.005 -2.20624,0.004 z" /><use
       x="0"
       y="0"
       xlink:href="#rect52-8"
       transform="translate(-1.4070383e-7,11.671859)"
       id="use107-7" /><use
       x="0"
       y="0"
       xlink:href="#rect52-8"
       transform="translate(-1.4070383e-7,23.343718)"
       id="use108-3" /><use
       x="0"
       y="0"
       xlink:href="#rect52-8"
       transform="translate(-1.4070383e-7,35.015575)"
       id="use109-6" /><use
       x="0"
       y="0"
       xlink:href="#rect52-8"
       transform="translate(-1.4070383e-7,46.687436)"
       id="use110-1" /><path
       id="rect52-1"
       style="fill:#0049fe;fill-opacity:1;stroke-width:3.20282;stroke-linecap:round;paint-order:stroke markers fill"
       d="m 221.66558,96.077628 c -1.68671,0.02685 -3.26245,1.341768 -3.49422,3.024614 -0.14121,1.231678 -0.0745,2.486768 -0.0476,3.723358 0.0745,1.79215 1.66487,3.32674 3.45259,3.37246 1.36543,-0.0286 2.77557,0.1649 4.11114,-0.16448 1.55157,-0.46244 2.60961,-2.03027 2.54813,-3.63501 -0.0924,-1.56975 0.32551,-3.330397 -0.63328,-4.705671 -0.78152,-1.249522 -2.31664,-1.738246 -3.73057,-1.618845 -0.73532,0.0027 -1.47127,-0.0051 -2.20624,0.0036 z" /><use
       x="0"
       y="0"
       xlink:href="#rect52-1"
       transform="translate(1.1772548e-7,11.671859)"
       id="use107-78" /><use
       x="0"
       y="0"
       xlink:href="#rect52-1"
       transform="translate(1.1772548e-7,23.343718)"
       id="use108-4" /><use
       x="0"
       y="0"
       xlink:href="#rect52-1"
       transform="translate(1.1772548e-7,35.015575)"
       id="use109-50" /><use
       x="0"
       y="0"
       xlink:href="#rect52-1"
       transform="translate(46.69808,11.671859)"
       id="use107-78-7" /><use
       x="0"
       y="0"
       xlink:href="#rect52-1"
       transform="translate(46.69808,23.343718)"
       id="use108-4-8" /><use
       x="0"
       y="0"
       xlink:href="#rect52-1"
       transform="translate(46.69808,35.015575)"
       id="use109-50-6" /><use
       x="0"
       y="0"
       xlink:href="#rect52-1"
       transform="translate(1.1772548e-7,46.687436)"
       id="use110-3" /><use
       x="0"
       y="0"
       xlink:href="#rect52"
       transform="rotate(-90,166.31068,130.31059)"
       id="use109-3" /><use
       x="0"
       y="0"
       xlink:href="#rect52"
       transform="rotate(-90,160.47298,136.1483)"
       id="use109-3-1" /><use
       x="0"
       y="0"
       xlink:href="#rect52"
       transform="rotate(-90,154.63527,141.986)"
       id="use109-3-1-0" /><use
       x="0"
       y="0"
       xlink:href="#rect52"
       transform="translate(109.3849,46.697477)"
       id="use110-6" /><use
       x="0"
       y="0"
       xlink:href="#rect52"
       transform="rotate(-90,221.00816,75.623168)"
       id="use109-3-3" /><use
       x="0"
       y="0"
       xlink:href="#rect52"
       transform="rotate(-90,215.17044,81.460861)"
       id="use109-3-1-2" /><use
       x="0"
       y="0"
       xlink:href="#rect52"
       transform="translate(109.3849,0.010042)"
       id="use110-6-4" /><use
       x="0"
       y="0"
       xlink:href="#rect52"
       transform="rotate(-90,197.66444,52.279448)"
       id="use109-3-3-7" /><use
       x="0"
       y="0"
       xlink:href="#rect52"
       transform="rotate(-90,191.82673,58.117147)"
       id="use109-3-1-2-6" /><path
       id="rect52-1-3"
       style="fill:#0049fe;fill-opacity:1;stroke-width:3.20282;stroke-linecap:round;paint-order:stroke markers fill"
       d="m 289.23595,96.077628 c -1.68671,0.02685 -3.26245,1.341768 -3.49422,3.024614 -0.14121,1.231678 -0.0745,2.486768 -0.0476,3.723358 0.0745,1.79215 1.66487,3.32674 3.45259,3.37246 1.36543,-0.0286 2.77557,0.1649 4.11114,-0.16448 1.55157,-0.46244 2.60961,-2.03027 2.54813,-3.63501 -0.0924,-1.56975 0.32551,-3.330397 -0.63328,-4.705671 -0.78152,-1.249522 -2.31664,-1.738246 -3.73057,-1.618845 -0.73532,0.0027 -1.47127,-0.0051 -2.20624,0.0036 z" /><use
       x="0"
       y="0"
       xlink:href="#rect52-1-3"
       transform="translate(3.0831539e-7,11.671859)"
       id="use107-78-4" /><use
       x="0"
       y="0"
       xlink:href="#rect52-1-3"
       transform="translate(3.0831539e-7,23.343718)"
       id="use108-4-9" /><use
       x="0"
       y="0"
       xlink:href="#rect52-1-3"
       transform="translate(3.0831539e-7,35.015575)"
       id="use109-50-2" /><use
       x="0"
       y="0"
       xlink:href="#rect52-1-3"
       transform="translate(3.0831539e-7,46.687436)"
       id="use110-3-0" /><use
       x="0"
       y="0"
       xlink:href="#rect52"
       transform="translate(176.95527,46.697477)"
       id="use110-6-6" /><use
       x="0"
       y="0"
       xlink:href="#rect52"
       transform="rotate(-90,254.79335,41.837985)"
       id="use109-3-3-8" /><use
       x="0"
       y="0"
       xlink:href="#rect52"
       transform="translate(225.44559,46.697373)"
       id="use110-6-6-6" /><use
       x="0"
       y="0"
       xlink:href="#rect52"
       transform="rotate(-90,279.03843,17.592765)"
       id="use109-3-3-8-7" /><use
       x="0"
       y="0"
       xlink:href="#rect52"
       transform="rotate(-90,248.95563,47.675678)"
       id="use109-3-1-2-9" /><use
       x="0"
       y="0"
       xlink:href="#rect52"
       transform="translate(176.95527,0.010042)"
       id="use110-6-4-2" /><use
       x="0"
       y="0"
       xlink:href="#rect52"
       transform="translate(197.824,0.010042)"
       id="use110-6-4-2-2" /><use
       x="0"
       y="0"
       xlink:href="#rect52"
       transform="translate(201.81143,11.68187)"
       id="use110-6-4-2-2-6" /><use
       x="0"
       y="0"
       xlink:href="#rect52"
       transform="translate(205.79886,23.353698)"
       id="use110-6-4-2-2-6-5" /><use
       x="0"
       y="0"
       xlink:href="#rect52"
       transform="translate(209.78629,35.025526)"
       id="use110-6-4-2-2-6-9" /><use
       x="0"
       y="0"
       xlink:href="#rect52"
       transform="matrix(-1,0,0,1,539.00467,0.01361313)"
       id="use110-6-4-2-2-3" /><use
       x="0"
       y="0"
       xlink:href="#rect52"
       transform="matrix(-1,0,0,1,535.01724,11.685441)"
       id="use110-6-4-2-2-6-94" /><use
       x="0"
       y="0"
       xlink:href="#rect52"
       transform="matrix(-1,0,0,1,531.02981,23.357269)"
       id="use110-6-4-2-2-6-5-8" /><use
       x="0"
       y="0"
       xlink:href="#rect52"
       transform="matrix(-1,0,0,1,527.04238,35.029098)"
       id="use110-6-4-2-2-6-9-1" /><use
       x="0"
       y="0"
       xlink:href="#rect52"
       transform="rotate(-90,231.44962,18.494263)"
       id="use109-3-3-7-6" /><use
       x="0"
       y="0"
       xlink:href="#rect52"
       transform="rotate(-90,225.61191,24.331962)"
       id="use109-3-1-2-6-6" /><use
       x="0"
       y="0"
       xlink:href="#rect52"
       transform="translate(176.95527,23.353763)"
       id="use110-6-4-2-0" /><use
       x="0"
       y="0"
       xlink:href="#rect52"
       transform="rotate(-90,243.12148,30.166118)"
       id="use109-3-3-7-6-4" /><use
       x="0"
       y="0"
       xlink:href="#rect52"
       transform="rotate(-90,237.28377,36.003823)"
       id="use109-3-1-2-6-6-8" /></g><g
     id="layer2"
     style="display:none"
     transform="translate(-49.739214,-96.045849)"><path
       id="path140"
       style="opacity:1;fill:#000000;stroke-width:3.49999;stroke-linecap:round;paint-order:stroke markers fill"
       d="m 57.333984,96.455078 a 2.1132754,2.1132754 0 0 0 -2.953125,0.453125 l -4.232422,5.765627 a 2.1132754,2.1132754 0 0 0 0.453125,2.95312 l 25.689454,18.84961 -25.689454,18.84961 a 2.1132754,2.1132754 0 0 0 -0.453125,2.95313 l 4.232422,5.76562 a 2.1132754,2.1132754 0 0 0 2.953125,0.45313 l 29.820313,-21.88282 2.501953,-1.83593 a 2.1132754,2.1132754 0 0 0 0.863281,-1.70313 v -5.19922 a 2.1132754,2.1132754 0 0 0 -0.863281,-1.70312 l -2.501953,-1.83594 z" /></g><g
     id="layer3"
     transform="translate(-49.739214,-96.045849)"><path
       id="path1"
       style="opacity:1;fill:#ffffff;stroke-width:3.49999;stroke-linecap:round;paint-order:stroke markers fill"
       d="m 57.333984,96.455078 a 2.1132754,2.1132754 0 0 0 -2.953125,0.453125 l -4.232422,5.765627 a 2.1132754,2.1132754 0 0 0 0.453125,2.95312 l 25.689454,18.84961 -25.689454,18.84961 a 2.1132754,2.1132754 0 0 0 -0.453125,2.95313 l 4.232422,5.76562 a 2.1132754,2.1132754 0 0 0 2.953125,0.45313 l 29.820313,-21.88282 2.501953,-1.83593 a 2.1132754,2.1132754 0 0 0 0.863281,-1.70313 v -5.19922 a 2.1132754,2.1132754 0 0 0 -0.863281,-1.70312 l -2.501953,-1.83594 z" /></g></svg>
